<svg width="32" height="32" viewBox="0 0 32 32" fill="none" xmlns="http://www.w3.org/2000/svg">
<rect width="32" height="32" rx="16" fill="#FFF2E7"/>
<path d="M22.1168 18.0753L21.2834 16.692C21.1084 16.3837 20.9501 15.8003 20.9501 15.4587V13.3503C20.9501 11.392 19.8001 9.70033 18.1418 8.90866C17.7084 8.14199 16.9084 7.66699 15.9918 7.66699C15.0834 7.66699 14.2668 8.15866 13.8334 8.93366C12.2084 9.74199 11.0834 11.417 11.0834 13.3503V15.4587C11.0834 15.8003 10.9251 16.3837 10.7501 16.6837L9.90845 18.0753C9.57512 18.6337 9.50012 19.2503 9.70845 19.817C9.90845 20.3753 10.3834 20.8087 11.0001 21.017C12.6168 21.567 14.3168 21.8337 16.0168 21.8337C17.7168 21.8337 19.4168 21.567 21.0334 21.0253C21.6168 20.8337 22.0668 20.392 22.2834 19.817C22.5001 19.242 22.4418 18.6087 22.1168 18.0753Z" fill="#FFAC6A"/>
<path d="M18.3582 22.6753C18.0082 23.642 17.0832 24.3337 15.9999 24.3337C15.3416 24.3337 14.6916 24.067 14.2332 23.592C13.9666 23.342 13.7666 23.0087 13.6499 22.667C13.7582 22.6837 13.8666 22.692 13.9832 22.7087C14.1749 22.7337 14.3749 22.7587 14.5749 22.7753C15.0499 22.817 15.5332 22.842 16.0166 22.842C16.4916 22.842 16.9666 22.817 17.4332 22.7753C17.6082 22.7587 17.7832 22.7503 17.9499 22.7253C18.0832 22.7087 18.2166 22.692 18.3582 22.6753Z" fill="#FFAC6A"/>
</svg>
