<svg width="170" height="136" viewBox="0 0 170 136" fill="none" xmlns="http://www.w3.org/2000/svg">
<g clip-path="url(#clip0_31_2475)">
<path d="M76.94 132.56L80.2076 111.272C80.3383 110.532 80.6868 109.879 81.2968 109.313C81.9938 108.66 82.8216 108.355 83.693 108.355C84.5643 108.355 85.305 108.617 85.9585 109.183C86.612 109.749 87.0477 110.358 87.2219 111.098L91.448 126.204L95.7176 111.098C95.9354 110.358 96.3711 109.749 96.981 109.226C97.6781 108.66 98.4623 108.355 99.2901 108.355C100.205 108.355 100.989 108.66 101.643 109.226C102.296 109.792 102.645 110.489 102.775 111.229L106.13 132.517V133.213C106.13 134.04 105.869 134.694 105.39 135.216C104.91 135.738 104.3 135.956 103.56 135.956C102.688 135.956 102.035 135.738 101.643 135.347C101.251 134.911 100.946 134.258 100.771 133.3L98.7237 117.759L94.367 133.779C94.1927 134.432 93.9313 134.911 93.5828 135.216C93.1035 135.738 92.4064 135.956 91.5351 135.956C90.6638 135.956 90.0102 135.695 89.4874 135.216C89.0953 134.824 88.8339 134.345 88.7032 133.779L84.4336 117.759L82.2117 133.3C82.081 134.215 81.8196 134.911 81.4275 135.303C80.9918 135.738 80.3383 135.956 79.4669 135.956C78.7263 135.956 78.1163 135.695 77.6371 135.216C77.1579 134.737 76.8964 134.04 76.8964 133.213C76.8529 132.909 76.8965 132.691 76.94 132.56Z" fill="black"/>
<path d="M118.46 124.418C117.327 125.071 116.412 125.376 115.192 125.376C114.016 125.376 113.275 125.158 112.578 124.636C111.925 124.157 111.533 123.417 111.445 122.808C111.445 122.721 111.489 122.59 111.576 122.546C113.798 122.459 117.676 122.285 118.59 122.024C118.678 121.937 118.852 121.284 118.852 121.153C118.634 121.11 118.373 120.936 118.329 120.805C118.111 119.456 117.066 117.279 113.929 117.279C112.796 117.279 111.576 117.627 110.661 118.106C109.18 118.933 108.091 120.457 108.091 122.503C108.091 123.852 108.57 125.42 109.79 126.421C110.618 127.117 111.75 127.553 113.449 127.553C115.061 127.553 117.24 126.856 118.416 125.55C118.46 125.42 118.634 124.854 118.59 124.593C118.59 124.549 118.503 124.462 118.46 124.418ZM113.145 118.498C114.277 118.498 114.974 119.543 115.149 120.936C115.105 121.023 115.061 121.11 114.931 121.153C114.452 121.24 112.404 121.24 111.576 121.24C111.445 121.24 111.358 121.11 111.358 121.066C111.445 119.673 112.099 118.498 113.145 118.498ZM134.275 125.681C133.578 125.681 133.186 125.681 132.881 125.637C132.576 125.594 132.401 125.42 132.401 124.897V121.023C132.401 117.453 132.445 115.668 132.488 114.275C132.532 113.1 132.488 112.708 132.793 112.316C132.837 112.229 132.706 111.837 132.576 111.75C131.53 112.098 128.567 112.447 126.912 112.447C126.738 112.534 126.694 113.317 126.781 113.448C127.435 113.535 128.045 113.578 128.48 113.709C128.959 113.883 129.047 114.188 129.09 114.58C129.134 115.189 129.134 115.886 129.134 117.235C129.134 117.322 129.047 117.366 129.003 117.366C128.742 117.322 128.393 117.322 128.132 117.322C126.345 117.322 124.036 118.019 122.947 118.802C121.684 119.63 120.812 121.066 120.812 122.764C120.812 124.07 121.292 125.376 122.076 126.203C122.817 126.987 123.949 127.509 125.213 127.509C126.084 127.509 127.609 126.943 128.916 126.203C128.959 126.16 129.047 126.247 129.047 126.29C129.09 126.682 129.09 127.205 129.134 127.422C129.177 127.509 129.308 127.683 129.395 127.683C130.092 127.683 133.011 127.161 134.057 126.769C134.144 126.682 134.318 125.811 134.275 125.681ZM126.65 118.628C127.26 118.628 127.957 118.759 128.48 119.107C129.003 119.456 129.09 119.804 129.09 120.283C129.09 121.632 129.09 124.027 129.047 124.636C129.047 124.897 129.003 125.071 128.872 125.158C128.48 125.42 127.914 125.55 127.522 125.55C125.561 125.55 124.211 124.157 124.211 121.676C124.211 120.413 124.646 119.586 125.169 119.107C125.648 118.759 126.171 118.628 126.65 118.628ZM141.855 126.334C141.202 126.247 140.941 126.16 140.679 126.116C140.331 126.029 140.156 125.768 140.156 125.158C140.113 124.07 140.113 122.677 140.113 121.415V117.322C138.762 117.758 136.061 118.106 135.364 118.106C135.233 118.237 135.103 118.846 135.233 119.02C136.148 119.281 136.41 119.456 136.627 119.673C136.758 119.76 136.802 120.021 136.802 120.196V122.329C136.802 123.504 136.802 124.723 136.758 125.289C136.714 125.811 136.714 125.986 136.366 126.116C136.061 126.203 135.756 126.247 135.19 126.334C135.015 126.464 135.102 127.248 135.19 127.379C135.8 127.379 136.889 127.292 138.326 127.292C140.374 127.292 141.333 127.379 141.725 127.379C141.899 127.248 142.03 126.464 141.855 126.334ZM140.069 114.319C140.069 114.101 140.026 113.622 139.808 113.404C139.677 113.274 139.241 113.143 138.588 113.143C137.847 113.143 136.932 113.361 136.54 113.753C136.322 113.97 136.322 114.667 136.366 114.841C136.584 115.494 136.889 115.755 137.324 115.929C137.586 116.06 139.111 116.016 139.329 115.799C139.764 115.45 140.069 114.797 140.069 114.319ZM159.805 125.724C159.108 125.724 158.89 125.289 158.89 124.505C158.934 123.635 159.413 121.415 159.892 119.412C160.067 118.628 160.284 118.149 160.502 117.627C159.805 117.496 158.934 117.279 157.365 117.279C155.274 117.279 152.486 118.672 151.484 119.673C150.09 120.936 148.957 123.069 148.957 125.071C148.957 126.16 149.305 127.64 150.656 127.64C151.876 127.64 154.141 126.377 155.71 124.593C155.753 124.505 155.841 124.549 155.841 124.636C155.71 125.333 155.71 125.724 155.666 126.073C155.623 126.813 155.928 127.683 157.148 127.683C160.807 127.683 165.6 125.333 165.6 120.021C165.6 116.843 162.768 112.882 156.886 112.882C153.227 112.882 149.959 114.144 147.389 116.452C145.167 118.411 143.772 121.066 143.772 124.157C143.772 130.383 149.305 132.559 150.961 132.559C151.789 132.559 153.096 132.385 153.749 131.863C153.793 131.776 153.793 131.427 153.749 131.384C153.009 131.471 151.832 131.297 151.179 131.166C148.783 130.644 146.299 128.38 146.299 123.983C146.299 116.931 152.094 114.362 155.666 114.362C159.762 114.362 163.596 116.278 163.596 121.153C163.552 124.114 161.461 125.724 159.805 125.724ZM153.096 125.028C152.617 125.028 152.181 124.593 152.224 123.461C152.224 122.372 152.573 121.24 153.009 120.457C153.793 119.194 154.621 118.89 155.623 118.89C156.146 118.89 156.799 118.977 157.235 119.194C157.104 119.455 156.886 120.109 156.756 120.544C156.363 121.937 156.189 122.372 155.884 122.808C154.795 124.375 153.793 125.028 153.096 125.028Z" fill="black"/>
<path fill-rule="evenodd" clip-rule="evenodd" d="M170 0C161.896 24.8143 151.353 50.5429 133.926 69.872C114.539 89.5928 84.1722 90.6376 63.2599 91.5954C42.3475 92.5531 25.3562 92.379 14.2901 97.9078C3.22399 103.437 1.78626 112.927 1.78626 112.927L2.87545 107.05L10.5433 96.0794L49.9718 82.758L106.958 74.7478L144.252 51.7183L158.716 25.5544L167.43 5.70295L170 0Z" fill="black"/>
<path fill-rule="evenodd" clip-rule="evenodd" d="M153.052 34.5215C153.096 34.5215 148.086 43.8377 138.37 49.8454C131.704 53.9812 123.078 56.3755 113.798 56.7673C101.338 57.2897 90.8816 56.6367 82.9523 58.3781C75.5894 59.9888 69.0979 62.5138 66.7452 73.1361C66.7452 73.1361 66.0046 62.5573 78.9441 56.1578C91.8836 49.7148 124.385 52.3269 135.103 47.1463C139.546 45.0132 143.685 43.0977 147.345 40.0938C149.48 38.3089 151.353 36.8723 153.052 34.5215Z" fill="black"/>
<path fill-rule="evenodd" clip-rule="evenodd" d="M95.674 44.8837C93.8006 42.3152 89.836 36.7864 71.7119 42.7941C57.8575 47.3651 46.2686 51.7185 35.7253 49.4983C29.103 48.1052 24.3106 43.6212 19.6489 38.876C12.6781 31.6929 7.66786 24.3792 8.0164 24.2051L11.6761 28.7761L22.4808 38.7019L40.6919 46.7557L69.2286 40.6174L85.1743 37.7441L90.1845 39.1808L93.7135 41.7057L94.9334 43.3165L95.4997 44.3613L95.674 44.8837Z" fill="black"/>
<path fill-rule="evenodd" clip-rule="evenodd" d="M8.0164 24.2045C8.0164 24.2045 22.1758 42.6629 38.8621 42.5758C48.7519 42.5322 60.428 39.4849 70.3178 37.7C74.4567 36.9599 78.5085 36.481 81.776 36.481C86.8298 36.4375 94.8027 39.006 95.674 44.8831C95.674 44.8831 91.9708 35.0444 73.1061 40.9215C57.4218 45.8408 44.1338 49.8895 33.7212 46.9727C31.2814 46.2762 29.0595 45.1878 27.0989 43.9253C22.8293 41.1392 19.2132 37.1776 15.6843 33.4337C10.9354 28.2967 7.62429 24.1174 8.0164 24.2045Z" fill="#FF7506"/>
<path fill-rule="evenodd" clip-rule="evenodd" d="M1.78626 112.927C1.78626 112.927 0.784213 106.005 7.10149 98.4302C11.4147 93.2497 19.6053 87.7209 32.1963 84.2382C63.1727 75.6184 103.995 72.3534 117.066 66.4763C130.092 60.5992 141.943 51.5877 147.519 43.2727C153.052 34.9577 152.922 34.6965 153.009 34.6965C153.052 34.6965 148.565 42.6197 138.588 48.1485C134.362 50.4994 128.001 53.2855 122.207 53.9385C102.601 56.1152 91.3173 54.4609 82.6038 56.7682C73.8903 59.0755 70.7535 62.5147 68.7058 66.694C66.6581 70.8297 66.7888 73.1805 66.7888 73.1805C66.7888 73.1805 65.7432 61.3393 78.6827 54.8963C91.6222 48.4533 125.561 47.8873 136.235 42.6632C140.679 40.5301 144.818 38.6146 148.478 35.6108C153.662 31.3444 157.06 25.7286 161.417 16.8476C168.911 1.61076 170 0 170 0C161.635 22.2894 151.658 48.4533 135.059 65.388C115.671 85.1088 85.305 86.9373 64.3926 87.895C43.4803 88.8527 25.6612 90.2023 14.5951 95.7311C3.52896 101.26 1.78626 112.927 1.78626 112.927Z" fill="#FF7506"/>
<path d="M7.10148 113.406H13.2445L19.8667 127.511H13.8109L13.0702 125.639H7.10148L6.40441 127.511H0.47924L7.10148 113.406ZM8.23424 122.679H12.0682L10.1076 117.629L8.23424 122.679ZM22.0015 113.406H28.0574V124.203H36.3352V127.468H21.958V113.406H22.0015ZM37.9472 113.406H54.8514V117.107H49.449V127.511H43.4367V117.107H37.9472V113.406ZM62.6063 113.406H68.7494L75.3716 127.511H69.3593L68.6186 125.639H62.6063L61.9093 127.511H56.0277L62.6063 113.406ZM63.7391 122.679H67.573L65.6125 117.629L63.7391 122.679Z" fill="#231F20" stroke="white" stroke-width="0.109501" stroke-miterlimit="2.6131"/>
<path d="M7.10148 113.406H13.2445L19.8667 127.511H13.8109L13.0702 125.639H7.10148L6.40441 127.511H0.47924L7.10148 113.406ZM8.23424 122.679H12.0682L10.1076 117.629L8.23424 122.679ZM22.0015 113.406H28.0574V124.203H36.3352V127.468H21.958V113.406H22.0015ZM37.9472 113.406H54.8514V117.107H49.449V127.511H43.4367V117.107H37.9472V113.406ZM62.6063 113.406H68.7494L75.3716 127.511H69.3593L68.6186 125.639H62.6063L61.9093 127.511H56.0277L62.6063 113.406ZM63.7391 122.679H67.573L65.6125 117.629L63.7391 122.679Z" fill="white" stroke="black" stroke-width="0.290356"/>
</g>
<defs>
<clipPath id="clip0_31_2475">
<rect width="170" height="136" fill="white"/>
</clipPath>
</defs>
</svg>
